# xmcd CD database file generated by Grip 2.98.5
# 
# Track frame offsets:
#       150
#       12015
#       22255
#       35500
#       44987
#       60065
#       72830
#       86437
#       99182
#       111330
#       126197
# 
# Disc length: 1864 secs
# 
# Revision: 4
# Processed by: cddbd v1.4PL0 Copyright (c) Steve Scherf et al.
# Submitted via: Grip 2.98.5
# 
DISCID=8b07460b
DTITLE=Willie Jaye - The Texas Hurricane
DYEAR=1992
DGENRE=Blues
TTITLE0=Back 2 Texas
TTITLE1=Personality
TTITLE2=Louisiana Girl
TTITLE3=Play the Blues and Live It
TTITLE4=Standing in the Rain
TTITLE5=Michelle
TTITLE6=Gonna Love You
TTITLE7=Trouble With a Capital "T"
TTITLE8=If the Blues Had Wings
TTITLE9=Chicken, Biscuits and Gravy
TTITLE10=Texas Rastamon
EXTD=
EXTT0=
EXTT1=
EXTT2=
EXTT3=
EXTT4=
EXTT5=
EXTT6=
EXTT7=
EXTT8=
EXTT9=
EXTT10=
PLAYORDER=
